{
  "source": "C:\\Users\\Peter\\Desktop\\stuff\\MIUN\\quantitative_research\\video_compression\\videos\\UVG\\ReadySteadyGo_1920x1080_120fps_420_8bit_YUV.y4m",
  "output": "C:\\Users\\Peter\\Desktop\\stuff\\MIUN\\quantitative_research\\video_compression\\compressed_videos\\UVG\\av1\\3\\ReadySteadyGo_1920x1080_120fps_420_8bit_YUV_av1.mkv",
  "codec": "av1",
  "ok": "[yuv4mpegpipe @ 00000189bb775c40] Stream #0: not enough frames to estimate rate; consider increasing probesize\nInput #0, yuv4mpegpipe, from 'C:\\Users\\Peter\\Desktop\\stuff\\MIUN\\quantitative_research\\video_compression\\videos\\UVG\\ReadySteadyGo_1920x1080_120fps_420_8bit_YUV.y4m':\n  Duration: 00:00:05.00, start: 0.000000, bitrate: 2985989 kb/s\n  Stream #0:0: Video: rawvideo (I420 / 0x30323449), yuv420p(progressive), 1920x1080, 120 fps, 120 tbr, 120 tbn\n[out#0/matroska @ 00000189bb779940] Codec AVOption b:a (set bitrate (in bits/s)) has not been used for any stream. The most likely reason is either wrong type (e.g. a video option with no video streams) or that it is a private option of some decoder which was not actually used for any stream.\nStream mapping:\n  Stream #0:0 -> #0:0 (rawvideo (native) -> av1 (libsvtav1))\nPress [q] to stop, [?] for help\nSvt[info]: -------------------------------------------\nSvt[info]: SVT [version]:\tSVT-AV1 Encoder Lib v3.1.0-19-g6ecfe8ec\nSvt[info]: SVT [build]  :\tGCC 15.2.0\t 64 bit\nSvt[info]: LIB Build date: Aug 17 2025 11:37:13\nSvt[info]: -------------------------------------------\n[libsvtav1 @ 00000189bb77c280] Specified chroma sample location center is unsupported on the AV1 bit stream level. Usage of a container that allows passing this information - such as Matroska - is recommended.\nSvt[info]: Level of Parallelism: 5\nSvt[info]: Number of PPCS 93\nSvt[info]: [asm level on system : up to avx2]\nSvt[info]: [asm level selected : up to avx2]\nSvt[info]: -------------------------------------------\nSvt[info]: SVT [config]: main profile\ttier (auto)\tlevel (auto)\nSvt[info]: SVT [config]: width / height / fps numerator / fps denominator \t\t: 1920 / 1080 / 120 / 1\nSvt[info]: SVT [config]: bit-depth / color format \t\t\t\t\t: 8 / YUV420\nSvt[info]: SVT [config]: preset / tune / pred struct \t\t\t\t\t: 4 / PSNR / random access\nSvt[info]: SVT [config]: gop size / mini-gop size / key-frame type \t\t\t: 641 / 16 / key frame\nSvt[info]: SVT [config]: BRC mode / target bitrate (kbps)\t\t\t\t: VBR / 3000 \nSvt[info]: SVT [config]: AQ mode / Variance Boost \t\t\t\t\t: 2 / 0\nSvt[info]: SVT [config]: sharpness / luminance-based QP bias \t\t\t\t: 0 / 0\nSvt[info]: SVT [config]: QP scale compress strength \t\t\t\t\t: 0\nSvt[info]: -------------------------------------------\nOutput #0, matroska, to 'C:\\Users\\Peter\\Desktop\\stuff\\MIUN\\quantitative_research\\video_compression\\compressed_videos\\UVG\\av1\\3\\ReadySteadyGo_1920x1080_120fps_420_8bit_YUV_av1.mkv':\n  Metadata:\n    encoder         : Lavf62.3.100\n  Stream #0:0: Video: av1 (AV01 / 0x31305641), yuv420p(tv, progressive), 1920x1080, q=2-31, 3000 kb/s, 120 fps, 1k tbn\n    Metadata:\n      encoder         : Lavc62.11.100 libsvtav1\n    Side data:\n      cpb: bitrate max/min/avg: 0/0/3000000 buffer size: 3000000 vbv_delay: N/A\nframe=    0 fps=0.0 q=0.0 size=       0KiB time=N/A bitrate=N/A speed=N/A elapsed=0:00:03.03    \nframe=    0 fps=0.0 q=0.0 size=       0KiB time=N/A bitrate=N/A speed=N/A elapsed=0:00:03.54    \nframe=    0 fps=0.0 q=0.0 size=       0KiB time=N/A bitrate=N/A speed=N/A elapsed=0:00:04.06    \nframe=    0 fps=0.0 q=0.0 size=       0KiB time=N/A bitrate=N/A speed=N/A elapsed=0:00:04.58    \nframe=    0 fps=0.0 q=0.0 size=       0KiB time=N/A bitrate=N/A speed=N/A elapsed=0:00:05.09    \nframe=    0 fps=0.0 q=0.0 size=       0KiB time=N/A bitrate=N/A speed=N/A elapsed=0:00:05.61    \nframe=    0 fps=0.0 q=0.0 size=       0KiB time=N/A bitrate=N/A speed=N/A elapsed=0:00:06.13    \nframe=    0 fps=0.0 q=0.0 size=       0KiB time=N/A bitrate=N/A speed=N/A elapsed=0:00:06.64    \nframe=    0 fps=0.0 q=0.0 size=       0KiB time=N/A bitrate=N/A speed=N/A elapsed=0:00:07.16    \nframe=    0 fps=0.0 q=0.0 size=       0KiB time=N/A bitrate=N/A speed=N/A elapsed=0:00:07.68    \nframe=    0 fps=0.0 q=0.0 size=       0KiB time=N/A bitrate=N/A speed=N/A elapsed=0:00:08.19    \nframe=    0 fps=0.0 q=0.0 size=       0KiB time=N/A bitrate=N/A speed=N/A elapsed=0:00:08.69    \nframe=    0 fps=0.0 q=0.0 size=       0KiB time=N/A bitrate=N/A speed=N/A elapsed=0:00:09.21    \nframe=    0 fps=0.0 q=0.0 size=       0KiB time=N/A bitrate=N/A speed=N/A elapsed=0:00:09.73    \nframe=    0 fps=0.0 q=0.0 size=       0KiB time=N/A bitrate=N/A speed=N/A elapsed=0:00:10.26    \nframe=    0 fps=0.0 q=0.0 size=       0KiB time=N/A bitrate=N/A speed=N/A elapsed=0:00:10.76    \nframe=    0 fps=0.0 q=0.0 size=       0KiB time=N/A bitrate=N/A speed=N/A elapsed=0:00:11.28    \nframe=    0 fps=0.0 q=0.0 size=       0KiB time=N/A bitrate=N/A speed=N/A elapsed=0:00:11.79    \nframe=    0 fps=0.0 q=0.0 size=       0KiB time=N/A bitrate=N/A speed=N/A elapsed=0:00:12.30    \nframe=    0 fps=0.0 q=0.0 size=       0KiB time=N/A bitrate=N/A speed=N/A elapsed=0:00:12.82    \nframe=    0 fps=0.0 q=0.0 size=       0KiB time=N/A bitrate=N/A speed=N/A elapsed=0:00:13.34    \nframe=    0 fps=0.0 q=0.0 size=       0KiB time=N/A bitrate=N/A speed=N/A elapsed=0:00:13.86    \nframe=    0 fps=0.0 q=0.0 size=       0KiB time=N/A bitrate=N/A speed=N/A elapsed=0:00:14.38    \nframe=    0 fps=0.0 q=0.0 size=       0KiB time=N/A bitrate=N/A speed=N/A elapsed=0:00:14.88    \nframe=    0 fps=0.0 q=0.0 size=       0KiB time=N/A bitrate=N/A speed=N/A elapsed=0:00:15.40    \nframe=    0 fps=0.0 q=0.0 size=       0KiB time=N/A bitrate=N/A speed=N/A elapsed=0:00:15.92    \nframe=    0 fps=0.0 q=0.0 size=       0KiB time=N/A bitrate=N/A speed=N/A elapsed=0:00:16.43    \nframe=    0 fps=0.0 q=0.0 size=       0KiB time=N/A bitrate=N/A speed=N/A elapsed=0:00:16.95    \nframe=    0 fps=0.0 q=0.0 size=       0KiB time=N/A bitrate=N/A speed=N/A elapsed=0:00:17.47    \nframe=    0 fps=0.0 q=0.0 size=       0KiB time=N/A bitrate=N/A speed=N/A elapsed=0:00:18.05    \nframe=    0 fps=0.0 q=0.0 size=       0KiB time=N/A bitrate=N/A speed=N/A elapsed=0:00:18.59    \nframe=    0 fps=0.0 q=0.0 size=       0KiB time=N/A bitrate=N/A speed=N/A elapsed=0:00:19.10    \nframe=    0 fps=0.0 q=0.0 size=       0KiB time=N/A bitrate=N/A speed=N/A elapsed=0:00:19.62    \nframe=    0 fps=0.0 q=0.0 size=       0KiB time=N/A bitrate=N/A speed=N/A elapsed=0:00:20.14    \nframe=    0 fps=0.0 q=0.0 size=       0KiB time=N/A bitrate=N/A speed=N/A elapsed=0:00:20.66    \nframe=    0 fps=0.0 q=0.0 size=       0KiB time=N/A bitrate=N/A speed=N/A elapsed=0:00:21.17    \nframe=    0 fps=0.0 q=0.0 size=       0KiB time=N/A bitrate=N/A speed=N/A elapsed=0:00:21.68    \nframe=    0 fps=0.0 q=0.0 size=       0KiB time=N/A bitrate=N/A speed=N/A elapsed=0:00:22.20    \nframe=    0 fps=0.0 q=0.0 size=       0KiB time=N/A bitrate=N/A speed=N/A elapsed=0:00:22.72    \nframe=    0 fps=0.0 q=0.0 size=       0KiB time=N/A bitrate=N/A speed=N/A elapsed=0:00:23.23    \nframe=    1 fps=0.0 q=23.0 size=       1KiB time=00:00:00.00 bitrate=N/A speed=   0x elapsed=0:00:23.74    \nframe=    1 fps=0.0 q=23.0 size=       1KiB time=00:00:00.00 bitrate=N/A speed=   0x elapsed=0:00:24.27    \nframe=    1 fps=0.0 q=23.0 size=       1KiB time=00:00:00.00 bitrate=N/A speed=   0x elapsed=0:00:24.78    \nframe=    1 fps=0.0 q=23.0 size=       1KiB time=00:00:00.00 bitrate=N/A speed=   0x elapsed=0:00:25.29    \nframe=    1 fps=0.0 q=23.0 size=       1KiB time=00:00:00.00 bitrate=N/A speed=   0x elapsed=0:00:25.82    \nframe=    1 fps=0.0 q=23.0 size=       1KiB time=00:00:00.00 bitrate=N/A speed=   0x elapsed=0:00:26.32    \nframe=    1 fps=0.0 q=23.0 size=       1KiB time=00:00:00.00 bitrate=N/A speed=   0x elapsed=0:00:26.84    \nframe=    1 fps=0.0 q=23.0 size=       1KiB time=00:00:00.00 bitrate=N/A speed=   0x elapsed=0:00:27.36    \nframe=    1 fps=0.0 q=23.0 size=       1KiB time=00:00:00.00 bitrate=N/A speed=   0x elapsed=0:00:27.87    \nframe=    1 fps=0.0 q=23.0 size=       1KiB time=00:00:00.00 bitrate=N/A speed=   0x elapsed=0:00:28.39    \nframe=    1 fps=0.0 q=23.0 size=       1KiB time=00:00:00.00 bitrate=N/A speed=   0x elapsed=0:00:28.91    \nframe=    1 fps=0.0 q=23.0 size=       1KiB time=00:00:00.00 bitrate=N/A speed=   0x elapsed=0:00:29.42    \nframe=    3 fps=0.1 q=49.0 size=       1KiB time=00:00:00.01 bitrate= 268.8kbits/s speed=0.000557x elapsed=0:00:29.93    \nframe=    3 fps=0.1 q=49.0 size=       1KiB time=00:00:00.01 bitrate= 268.8kbits/s speed=0.000547x elapsed=0:00:30.45    \nframe=    4 fps=0.1 q=52.0 size=       1KiB time=00:00:00.02 bitrate= 179.2kbits/s speed=0.000807x elapsed=0:00:30.96    \nframe=    6 fps=0.2 q=52.0 size=       1KiB time=00:00:00.04 bitrate= 107.5kbits/s speed=0.00132x elapsed=0:00:31.48    \nframe=    7 fps=0.2 q=48.0 size=       1KiB time=00:00:00.05 bitrate=  89.6kbits/s speed=0.00156x elapsed=0:00:31.99    \nframe=    8 fps=0.2 q=49.0 size=       1KiB time=00:00:00.05 bitrate=  76.8kbits/s speed=0.00179x elapsed=0:00:32.51    \nframe=    8 fps=0.2 q=49.0 size=       1KiB time=00:00:00.05 bitrate=  76.8kbits/s speed=0.00177x elapsed=0:00:33.03    \nframe=    9 fps=0.3 q=45.0 size=       1KiB time=00:00:00.06 bitrate=  67.2kbits/s speed=0.00199x elapsed=0:00:33.54    \nframe=   10 fps=0.3 q=47.0 size=       1KiB time=00:00:00.07 bitrate=  59.7kbits/s speed=0.0022x elapsed=0:00:34.07    \nframe=   12 fps=0.3 q=47.0 size=       1KiB time=00:00:00.09 bitrate=  48.9kbits/s speed=0.00265x elapsed=0:00:34.58    \nframe=   12 fps=0.3 q=47.0 size=       1KiB time=00:00:00.09 bitrate=  48.9kbits/s speed=0.00261x elapsed=0:00:35.10    \nframe=   12 fps=0.3 q=47.0 size=       1KiB time=00:00:00.09 bitrate=  48.9kbits/s speed=0.00257x elapsed=0:00:35.61    \nframe=   13 fps=0.4 q=47.0 size=       1KiB time=00:00:00.10 bitrate=  44.8kbits/s speed=0.00277x elapsed=0:00:36.12    \nframe=   14 fps=0.4 q=46.0 size=       1KiB time=00:00:00.10 bitrate=  41.4kbits/s speed=0.00296x elapsed=0:00:36.65    \nframe=   15 fps=0.4 q=47.0 size=       1KiB time=00:00:00.11 bitrate=  38.4kbits/s speed=0.00314x elapsed=0:00:37.15    \nframe=   16 fps=0.4 q=46.0 size=       1KiB time=00:00:00.12 bitrate=  35.8kbits/s speed=0.00332x elapsed=0:00:37.67    \nframe=   16 fps=0.4 q=46.0 size=       1KiB time=00:00:00.12 bitrate=  35.8kbits/s speed=0.00327x elapsed=0:00:38.18    \nframe=   17 fps=0.4 q=32.0 size=       1KiB time=00:00:00.13 bitrate=  33.6kbits/s speed=0.00345x elapsed=0:00:38.70    \nframe=   18 fps=0.5 q=45.0 size=       1KiB time=00:00:00.14 bitrate=  31.6kbits/s speed=0.00361x elapsed=0:00:39.21    \nframe=   18 fps=0.5 q=45.0 size=       1KiB time=00:00:00.14 bitrate=  31.6kbits/s speed=0.00357x elapsed=0:00:39.73    \nframe=   20 fps=0.5 q=45.0 size=       1KiB time=00:00:00.15 bitrate=  28.3kbits/s speed=0.00393x elapsed=0:00:40.25    \nframe=   21 fps=0.5 q=46.0 size=       1KiB time=00:00:00.16 bitrate=  26.9kbits/s speed=0.00409x elapsed=0:00:40.76    \nframe=   21 fps=0.5 q=46.0 size=       1KiB time=00:00:00.16 bitrate=  26.9kbits/s speed=0.00404x elapsed=0:00:41.28    \nframe=   22 fps=0.5 q=46.0 size=       1KiB time=00:00:00.17 bitrate=  25.6kbits/s speed=0.00419x elapsed=0:00:41.80    \nframe=   22 fps=0.5 q=46.0 size=       1KiB time=00:00:00.17 bitrate=  25.6kbits/s speed=0.00414x elapsed=0:00:42.31    \nframe=   23 fps=0.5 q=47.0 size=       1KiB time=00:00:00.18 bitrate=  24.4kbits/s speed=0.00428x elapsed=0:00:42.82    \nframe=   23 fps=0.5 q=47.0 size=       1KiB time=00:00:00.18 bitrate=  24.4kbits/s speed=0.00423x elapsed=0:00:43.34    \nframe=   23 fps=0.5 q=47.0 size=       1KiB time=00:00:00.18 bitrate=  24.4kbits/s speed=0.00418x elapsed=0:00:43.85    \nframe=   26 fps=0.6 q=47.0 size=       1KiB time=00:00:00.20 bitrate=  21.5kbits/s speed=0.00469x elapsed=0:00:44.38    \nframe=   26 fps=0.6 q=47.0 size=       1KiB time=00:00:00.20 bitrate=  21.5kbits/s speed=0.00464x elapsed=0:00:44.88    \nframe=   27 fps=0.6 q=47.0 size=       1KiB time=00:00:00.21 bitrate=  20.7kbits/s speed=0.00477x elapsed=0:00:45.40    \nframe=   27 fps=0.6 q=47.0 size=       1KiB time=00:00:00.21 bitrate=  20.7kbits/s speed=0.00472x elapsed=0:00:45.93    \nframe=   28 fps=0.6 q=45.0 size=       1KiB time=00:00:00.22 bitrate=  19.9kbits/s speed=0.00484x elapsed=0:00:46.43    \nframe=   29 fps=0.6 q=44.0 size=       1KiB time=00:00:00.23 bitrate=  19.2kbits/s speed=0.00497x elapsed=0:00:46.96    \nframe=   30 fps=0.6 q=47.0 size=       1KiB time=00:00:00.24 bitrate=  18.5kbits/s speed=0.00509x elapsed=0:00:47.48    \nframe=   32 fps=0.7 q=47.0 size=       1KiB time=00:00:00.25 bitrate=  17.3kbits/s speed=0.00538x elapsed=0:00:47.98    \nframe=   35 fps=0.7 q=47.0 size=       1KiB time=00:00:00.28 bitrate=  15.8kbits/s speed=0.00584x elapsed=0:00:48.50    \nframe=   36 fps=0.7 q=48.0 size=       1KiB time=00:00:00.29 bitrate=  15.4kbits/s speed=0.00595x elapsed=0:00:49.01    \nframe=   38 fps=0.8 q=47.0 size=       1KiB time=00:00:00.30 bitrate=  14.5kbits/s speed=0.00622x elapsed=0:00:49.53    \nframe=   39 fps=0.8 q=45.0 size=       1KiB time=00:00:00.31 bitrate=  14.1kbits/s speed=0.00633x elapsed=0:00:50.04    \nframe=   39 fps=0.8 q=45.0 size=       1KiB time=00:00:00.31 bitrate=  14.1kbits/s speed=0.00626x elapsed=0:00:50.56    \nframe=   42 fps=0.8 q=48.0 size=       1KiB time=00:00:00.34 bitrate=  13.1kbits/s speed=0.00669x elapsed=0:00:51.08    \nframe=   43 fps=0.8 q=47.0 size=       1KiB time=00:00:00.35 bitrate=  12.8kbits/s speed=0.00678x elapsed=0:00:51.59    \nframe=   43 fps=0.8 q=47.0 size=       1KiB time=00:00:00.35 bitrate=  12.8kbits/s speed=0.00672x elapsed=0:00:52.11    \nframe=   45 fps=0.9 q=44.0 size=       1KiB time=00:00:00.36 bitrate=  12.2kbits/s speed=0.00697x elapsed=0:00:52.62    \nframe=   47 fps=0.9 q=47.0 size=       1KiB time=00:00:00.38 bitrate=  11.7kbits/s speed=0.00721x elapsed=0:00:53.14    \nframe=   48 fps=0.9 q=48.0 size=       1KiB time=00:00:00.39 bitrate=  11.4kbits/s speed=0.0073x elapsed=0:00:53.65    \nframe=   49 fps=0.9 q=27.0 size=       1KiB time=00:00:00.40 bitrate=  11.2kbits/s speed=0.00738x elapsed=0:00:54.17    \nframe=   50 fps=0.9 q=49.0 size=       1KiB time=00:00:00.40 bitrate=  11.0kbits/s speed=0.00747x elapsed=0:00:54.68    \nframe=   51 fps=0.9 q=48.0 size=       1KiB time=00:00:00.41 bitrate=  10.8kbits/s speed=0.00755x elapsed=0:00:55.20    \nframe=   54 fps=1.0 q=49.0 size=       1KiB time=00:00:00.44 bitrate=  10.1kbits/s speed=0.00793x elapsed=0:00:55.71    \nframe=   54 fps=1.0 q=49.0 size=       1KiB time=00:00:00.44 bitrate=  10.1kbits/s speed=0.00785x elapsed=0:00:56.23    \nframe=   55 fps=1.0 q=48.0 size=       1KiB time=00:00:00.45 bitrate=  10.0kbits/s speed=0.00793x elapsed=0:00:56.75    \nframe=   55 fps=1.0 q=48.0 size=       1KiB time=00:00:00.45 bitrate=  10.0kbits/s speed=0.00786x elapsed=0:00:57.26    \nframe=   55 fps=1.0 q=48.0 size=       1KiB time=00:00:00.45 bitrate=  10.0kbits/s speed=0.00779x elapsed=0:00:57.77    \nframe=   58 fps=1.0 q=49.0 size=       1KiB time=00:00:00.47 bitrate=   9.4kbits/s speed=0.00815x elapsed=0:00:58.30    \nframe=   58 fps=1.0 q=49.0 size=       1KiB time=00:00:00.47 bitrate=   9.4kbits/s speed=0.00808x elapsed=0:00:58.82    \nframe=   59 fps=1.0 q=47.0 size=       1KiB time=00:00:00.48 bitrate=   9.3kbits/s speed=0.00815x elapsed=0:00:59.32    \nframe=   59 fps=1.0 q=47.0 size=       1KiB time=00:00:00.48 bitrate=   9.3kbits/s speed=0.00808x elapsed=0:00:59.85    \nframe=   60 fps=1.0 q=47.0 size=       1KiB time=00:00:00.49 bitrate=   9.1kbits/s speed=0.00815x elapsed=0:01:00.36    \nframe=   62 fps=1.0 q=49.0 size=       1KiB time=00:00:00.50 bitrate=   8.8kbits/s speed=0.00835x elapsed=0:01:00.87    \nframe=   63 fps=1.0 q=47.0 size=       1KiB time=00:00:00.51 bitrate=   8.7kbits/s speed=0.00842x elapsed=0:01:01.39    \nframe=   65 fps=1.0 q=29.0 size=       1KiB time=00:00:00.53 bitrate=   8.4kbits/s speed=0.00861x elapsed=0:01:01.91    \nframe=   66 fps=1.1 q=50.0 size=       1KiB time=00:00:00.54 bitrate=   8.3kbits/s speed=0.00868x elapsed=0:01:02.43    \nframe=   67 fps=1.1 q=49.0 size=       1KiB time=00:00:00.55 bitrate=   8.1kbits/s speed=0.00874x elapsed=0:01:02.93    \nframe=   68 fps=1.1 q=43.0 size=       1KiB time=00:00:00.55 bitrate=   8.0kbits/s speed=0.0088x elapsed=0:01:03.45    \nframe=   70 fps=1.1 q=49.0 size=       1KiB time=00:00:00.57 bitrate=   7.8kbits/s speed=0.00899x elapsed=0:01:03.96    \nframe=   70 fps=1.1 q=49.0 size=       1KiB time=00:00:00.57 bitrate=   7.8kbits/s speed=0.00892x elapsed=0:01:04.49    \nframe=   71 fps=1.1 q=46.0 size=       1KiB time=00:00:00.58 bitrate=   7.7kbits/s speed=0.00897x elapsed=0:01:04.99    \nframe=   71 fps=1.1 q=46.0 size=       1KiB time=00:00:00.58 bitrate=   7.7kbits/s speed=0.0089x elapsed=0:01:05.51    \nframe=   72 fps=1.1 q=49.0 size=       1KiB time=00:00:00.59 bitrate=   7.6kbits/s speed=0.00895x elapsed=0:01:06.08    \nframe=   73 fps=1.1 q=43.0 size=       1KiB time=00:00:00.60 bitrate=   7.5kbits/s speed=0.00901x elapsed=0:01:06.60    \nframe=   74 fps=1.1 q=51.0 size=       1KiB time=00:00:00.60 bitrate=   7.4kbits/s speed=0.00906x elapsed=0:01:07.17    \nframe=   75 fps=1.1 q=49.0 size=       1KiB time=00:00:00.61 bitrate=   7.3kbits/s speed=0.0091x elapsed=0:01:07.76    \nframe=   76 fps=1.1 q=47.0 size=       1KiB time=00:00:00.62 bitrate=   7.2kbits/s speed=0.00914x elapsed=0:01:08.34    \nframe=   78 fps=1.1 q=50.0 size=       1KiB time=00:00:00.64 bitrate=   7.0kbits/s speed=0.00932x elapsed=0:01:08.87    \nframe=   79 fps=1.1 q=47.0 size=       1KiB time=00:00:00.65 bitrate=   6.9kbits/s speed=0.00937x elapsed=0:01:09.38    \nframe=   80 fps=1.1 q=50.0 size=       1KiB time=00:00:00.65 bitrate=   6.8kbits/s speed=0.00942x elapsed=0:01:09.90    \nframe=   82 fps=1.2 q=51.0 size=       1KiB time=00:00:00.67 bitrate=   6.6kbits/s speed=0.00958x elapsed=0:01:10.43    \nframe=   82 fps=1.2 q=51.0 size=       1KiB time=00:00:00.67 bitrate=   6.6kbits/s speed=0.00951x elapsed=0:01:10.96    \nframe=   83 fps=1.2 q=50.0 size=       1KiB time=00:00:00.68 bitrate=   6.6kbits/s speed=0.00956x elapsed=0:01:11.48    \nframe=   83 fps=1.2 q=50.0 size=       1KiB time=00:00:00.68 bitrate=   6.6kbits/s speed=0.00949x elapsed=0:01:12.00    \nframe=   83 fps=1.1 q=50.0 size=       1KiB time=00:00:00.68 bitrate=   6.6kbits/s speed=0.00942x elapsed=0:01:12.57    \nframe=   84 fps=1.1 q=51.0 size=       1KiB time=00:00:00.69 bitrate=   6.5kbits/s speed=0.00945x elapsed=0:01:13.18    \nframe=   85 fps=1.2 q=47.0 size=       1KiB time=00:00:00.70 bitrate=   6.4kbits/s speed=0.0095x elapsed=0:01:13.70    \nframe=   85 fps=1.1 q=47.0 size=       1KiB time=00:00:00.70 bitrate=   6.4kbits/s speed=0.00943x elapsed=0:01:14.22    \nframe=   86 fps=1.2 q=49.0 size=       1KiB time=00:00:00.70 bitrate=   6.3kbits/s speed=0.00948x elapsed=0:01:14.74    \nframe=   86 fps=1.1 q=49.0 size=       1KiB time=00:00:00.70 bitrate=   6.3kbits/s speed=0.00941x elapsed=0:01:15.27    \nframe=   86 fps=1.1 q=49.0 size=       1KiB time=00:00:00.70 bitrate=   6.3kbits/s speed=0.00934x elapsed=0:01:15.79    \nframe=   86 fps=1.1 q=49.0 size=       1KiB time=00:00:00.70 bitrate=   6.3kbits/s speed=0.00928x elapsed=0:01:16.33    \nframe=   87 fps=1.1 q=46.0 size=       1KiB time=00:00:00.71 bitrate=   6.3kbits/s speed=0.00932x elapsed=0:01:16.86    \nframe=   89 fps=1.2 q=41.0 size=       1KiB time=00:00:00.73 bitrate=   6.1kbits/s speed=0.00948x elapsed=0:01:17.38    \nframe=   90 fps=1.2 q=51.0 size=       1KiB time=00:00:00.74 bitrate=   6.0kbits/s speed=0.00952x elapsed=0:01:17.90    \nframe=   90 fps=1.1 q=51.0 size=       1KiB time=00:00:00.74 bitrate=   6.0kbits/s speed=0.00945x elapsed=0:01:18.47    \nframe=   91 fps=1.2 q=49.0 size=       1KiB time=00:00:00.75 bitrate=   6.0kbits/s speed=0.00949x elapsed=0:01:19.00    \nframe=   91 fps=1.1 q=49.0 size=       1KiB time=00:00:00.75 bitrate=   6.0kbits/s speed=0.00943x elapsed=0:01:19.51    \nframe=   92 fps=1.1 q=47.0 size=       1KiB time=00:00:00.75 bitrate=   5.9kbits/s speed=0.00948x elapsed=0:01:20.03    \nframe=   94 fps=1.2 q=49.0 size=       1KiB time=00:00:00.77 bitrate=   5.8kbits/s speed=0.00962x elapsed=0:01:20.58    \nframe=   94 fps=1.2 q=49.0 size=       1KiB time=00:00:00.77 bitrate=   5.8kbits/s speed=0.00956x elapsed=0:01:21.09    \nframe=   96 fps=1.2 q=48.0 size=       1KiB time=00:00:00.79 bitrate=   5.7kbits/s speed=0.0097x elapsed=0:01:21.60    \nframe=   96 fps=1.2 q=48.0 size=       1KiB time=00:00:00.79 bitrate=   5.7kbits/s speed=0.00964x elapsed=0:01:22.13    \nframe=   98 fps=1.2 q=50.0 size=       1KiB time=00:00:00.80 bitrate=   5.5kbits/s speed=0.00978x elapsed=0:01:22.65    \nframe=   99 fps=1.2 q=49.0 size=       1KiB time=00:00:00.81 bitrate=   5.5kbits/s speed=0.00982x elapsed=0:01:23.16    \nframe=   99 fps=1.2 q=49.0 size=       1KiB time=00:00:00.81 bitrate=   5.5kbits/s speed=0.00976x elapsed=0:01:23.68    \nframe=   99 fps=1.2 q=49.0 size=       1KiB time=00:00:00.81 bitrate=   5.5kbits/s speed=0.00969x elapsed=0:01:24.25    \nframe=  101 fps=1.2 q=47.0 size=       1KiB time=00:00:00.83 bitrate=   5.4kbits/s speed=0.00983x elapsed=0:01:24.76    \nframe=  101 fps=1.2 q=47.0 size=       1KiB time=00:00:00.83 bitrate=   5.4kbits/s speed=0.00977x elapsed=0:01:25.28    \nframe=  102 fps=1.2 q=50.0 size=       1KiB time=00:00:00.84 bitrate=   5.3kbits/s speed=0.00981x elapsed=0:01:25.83    \nframe=  102 fps=1.2 q=50.0 size=       1KiB time=00:00:00.84 bitrate=   5.3kbits/s speed=0.00974x elapsed=0:01:26.39    \nframe=  102 fps=1.2 q=50.0 size=       1KiB time=00:00:00.84 bitrate=   5.3kbits/s speed=0.00968x elapsed=0:01:26.90    \nframe=  103 fps=1.2 q=49.0 size=       1KiB time=00:00:00.85 bitrate=   5.3kbits/s speed=0.00972x elapsed=0:01:27.42    \nframe=  103 fps=1.2 q=49.0 size=       1KiB time=00:00:00.85 bitrate=   5.3kbits/s speed=0.00967x elapsed=0:01:27.93    \nframe=  103 fps=1.2 q=49.0 size=       1KiB time=00:00:00.85 bitrate=   5.3kbits/s speed=0.00961x elapsed=0:01:28.47    \nframe=  105 fps=1.2 q=42.0 size=       1KiB time=00:00:00.86 bitrate=   5.2kbits/s speed=0.00974x elapsed=0:01:29.01    \nframe=  105 fps=1.2 q=42.0 size=       1KiB time=00:00:00.86 bitrate=   5.2kbits/s speed=0.00968x elapsed=0:01:29.53    \nframe=  106 fps=1.2 q=50.0 size=       1KiB time=00:00:00.87 bitrate=   5.1kbits/s speed=0.00972x elapsed=0:01:30.06    \nframe=  107 fps=1.2 q=48.0 size=       1KiB time=00:00:00.88 bitrate=   5.1kbits/s speed=0.00975x elapsed=0:01:30.58    \nframe=  107 fps=1.2 q=48.0 size=       1KiB time=00:00:00.88 bitrate=   5.1kbits/s speed=0.0097x elapsed=0:01:31.10    \nframe=  108 fps=1.2 q=50.0 size=       1KiB time=00:00:00.89 bitrate=   5.0kbits/s speed=0.00973x elapsed=0:01:31.62    \nframe=  110 fps=1.2 q=50.0 size=       1KiB time=00:00:00.90 bitrate=   4.9kbits/s speed=0.00986x elapsed=0:01:32.15    \nframe=  110 fps=1.2 q=50.0 size=       1KiB time=00:00:00.90 bitrate=   4.9kbits/s speed=0.0098x elapsed=0:01:32.67    \nframe=  112 fps=1.2 q=50.0 size=       1KiB time=00:00:00.92 bitrate=   4.8kbits/s speed=0.00993x elapsed=0:01:33.18    \nframe=  113 fps=1.2 q=31.0 size=       1KiB time=00:00:00.93 bitrate=   4.8kbits/s speed=0.00996x elapsed=0:01:33.70    \nframe=  114 fps=1.2 q=52.0 size=       1KiB time=00:00:00.94 bitrate=   4.8kbits/s speed=0.00999x elapsed=0:01:34.22    \nframe=  115 fps=1.2 q=50.0 size=       1KiB time=00:00:00.95 bitrate=   4.7kbits/s speed=0.01x elapsed=0:01:34.78    \nframe=  115 fps=1.2 q=50.0 size=       1KiB time=00:00:00.95 bitrate=   4.7kbits/s speed=0.00997x elapsed=0:01:35.29    \nframe=  116 fps=1.2 q=52.0 size=       1KiB time=00:00:00.95 bitrate=   4.7kbits/s speed=0.01x elapsed=0:01:35.80    \nframe=  117 fps=1.2 q=48.0 size=       1KiB time=00:00:00.96 bitrate=   4.6kbits/s speed=0.01x elapsed=0:01:36.33    \nframe=  118 fps=1.2 q=52.0 size=       1KiB time=00:00:00.97 bitrate=   4.6kbits/s speed=0.0101x elapsed=0:01:36.86    \nframe=  118 fps=1.2 q=52.0 size=       1KiB time=00:00:00.97 bitrate=   4.6kbits/s speed=0.01x elapsed=0:01:37.37    \nframe=  118 fps=1.2 q=52.0 size=       1KiB time=00:00:00.97 bitrate=   4.6kbits/s speed=0.00996x elapsed=0:01:37.89    \nframe=  119 fps=1.2 q=50.0 size=       1KiB time=00:00:00.98 bitrate=   4.6kbits/s speed=0.00999x elapsed=0:01:38.44    \nframe=  119 fps=1.2 q=50.0 size=       1KiB time=00:00:00.98 bitrate=   4.6kbits/s speed=0.00994x elapsed=0:01:38.95    \nframe=  120 fps=1.2 q=52.0 size=       1KiB time=00:00:00.99 bitrate=   4.5kbits/s speed=0.00997x elapsed=0:01:39.47    \nframe=  121 fps=1.2 q=43.0 size=       1KiB time=00:00:01.00 bitrate=   4.5kbits/s speed=0.01x elapsed=0:01:39.98    \nframe=  121 fps=1.2 q=43.0 size=       1KiB time=00:00:01.00 bitrate=   4.5kbits/s speed=0.00995x elapsed=0:01:40.51    \nframe=  123 fps=1.2 q=49.0 size=       1KiB time=00:00:01.01 bitrate=   4.4kbits/s speed=0.0101x elapsed=0:01:41.03    \nframe=  123 fps=1.2 q=49.0 size=       1KiB time=00:00:01.01 bitrate=   4.4kbits/s speed=0.01x elapsed=0:01:41.54    \nframe=  123 fps=1.2 q=49.0 size=       1KiB time=00:00:01.01 bitrate=   4.4kbits/s speed=0.00996x elapsed=0:01:42.12    \nframe=  124 fps=1.2 q=52.0 size=       1KiB time=00:00:01.01 bitrate=   4.4kbits/s speed=0.0099x elapsed=0:01:42.65    \nframe=  125 fps=1.2 q=45.0 size=       1KiB time=00:00:01.03 bitrate=   4.3kbits/s speed=0.01x elapsed=0:01:43.33    \nframe=  127 fps=1.2 q=49.0 size=       1KiB time=00:00:01.05 bitrate=   4.3kbits/s speed=0.0101x elapsed=0:01:43.87    \nframe=  127 fps=1.2 q=49.0 size=       1KiB time=00:00:01.05 bitrate=   4.3kbits/s speed=0.0101x elapsed=0:01:44.46    \nframe=  129 fps=1.2 q=30.0 size=       1KiB time=00:00:01.06 bitrate=   4.2kbits/s speed=0.0102x elapsed=0:01:44.99    \nframe=  131 fps=1.2 q=51.0 size=       1KiB time=00:00:01.08 bitrate=   4.1kbits/s speed=0.0103x elapsed=0:01:45.51    \nframe=  132 fps=1.2 q=53.0 size=       1KiB time=00:00:01.09 bitrate=   4.1kbits/s speed=0.0103x elapsed=0:01:46.02    \nframe=  133 fps=1.2 q=49.0 size=       1KiB time=00:00:01.10 bitrate=   4.1kbits/s speed=0.0103x elapsed=0:01:46.54    \nframe=  134 fps=1.3 q=53.0 size=       1KiB time=00:00:01.10 bitrate=   4.0kbits/s speed=0.0103x elapsed=0:01:47.12    \nframe=  134 fps=1.2 q=53.0 size=       1KiB time=00:00:01.10 bitrate=   4.0kbits/s speed=0.0103x elapsed=0:01:47.65    \nframe=  134 fps=1.2 q=53.0 size=       1KiB time=00:00:01.10 bitrate=   4.0kbits/s speed=0.0102x elapsed=0:01:48.17    \nframe=  135 fps=1.2 q=47.0 size=       1KiB time=00:00:01.11 bitrate=   4.0kbits/s speed=0.0103x elapsed=0:01:48.69    \nframe=  135 fps=1.2 q=47.0 size=       1KiB time=00:00:01.11 bitrate=   4.0kbits/s speed=0.0102x elapsed=0:01:49.21    \nframe=  137 fps=1.2 q=45.0 size=       1KiB time=00:00:01.13 bitrate=   4.0kbits/s speed=0.0103x elapsed=0:01:49.73    \nframe=  138 fps=1.3 q=53.0 size=       1KiB time=00:00:01.14 bitrate=   3.9kbits/s speed=0.0104x elapsed=0:01:50.27    \nframe=  139 fps=1.3 q=50.0 size=       1KiB time=00:00:01.15 bitrate=   3.9kbits/s speed=0.0104x elapsed=0:01:50.83    \nframe=  139 fps=1.2 q=50.0 size=       1KiB time=00:00:01.15 bitrate=   3.9kbits/s speed=0.0103x elapsed=0:01:51.36    \nframe=  139 fps=1.2 q=50.0 size=       1KiB time=00:00:01.15 bitrate=   3.9kbits/s speed=0.0103x elapsed=0:01:51.87    \nframe=  142 fps=1.3 q=53.0 size=       1KiB time=00:00:01.17 bitrate=   3.8kbits/s speed=0.0104x elapsed=0:01:52.45    \nframe=  142 fps=1.3 q=53.0 size=       1KiB time=00:00:01.17 bitrate=   3.8kbits/s speed=0.0104x elapsed=0:01:52.99    \nframe=  144 fps=1.3 q=53.0 size=       1KiB time=00:00:01.19 bitrate=   3.8kbits/s speed=0.0105x elapsed=0:01:53.52    \nframe=  144 fps=1.3 q=53.0 size=       1KiB time=00:00:01.19 bitrate=   3.8kbits/s speed=0.0104x elapsed=0:01:54.04    \nframe=  145 fps=1.3 q=32.0 size=       1KiB time=00:00:01.20 bitrate=   3.7kbits/s speed=0.0105x elapsed=0:01:54.56    \nframe=  146 fps=1.3 q=53.0 size=       1KiB time=00:00:01.20 bitrate=   3.7kbits/s speed=0.0105x elapsed=0:01:55.11    \nframe=  147 fps=1.3 q=51.0 size=       1KiB time=00:00:01.21 bitrate=   3.7kbits/s speed=0.0105x elapsed=0:01:55.64    \nframe=  147 fps=1.3 q=51.0 size=       1KiB time=00:00:01.21 bitrate=   3.7kbits/s speed=0.0105x elapsed=0:01:56.22    \nframe=  148 fps=1.3 q=53.0 size=       1KiB time=00:00:01.22 bitrate=   3.7kbits/s speed=0.0105x elapsed=0:01:56.83    \nframe=  149 fps=1.3 q=49.0 size=       1KiB time=00:00:01.22 bitrate=   3.7kbits/s speed=0.0104x elapsed=0:01:57.41    \nframe=  150 fps=1.3 q=53.0 size=       1KiB time=00:00:01.24 bitrate=   3.6kbits/s speed=0.0105x elapsed=0:01:58.04    \nframe=  150 fps=1.3 q=53.0 size=       1KiB time=00:00:01.24 bitrate=   3.6kbits/s speed=0.0105x elapsed=0:01:58.59    \nframe=  151 fps=1.3 q=51.0 size=       1KiB time=00:00:01.25 bitrate=   3.6kbits/s speed=0.0105x elapsed=0:01:59.14    \nframe=  152 fps=1.3 q=53.0 size=       1KiB time=00:00:01.25 bitrate=   3.6kbits/s speed=0.0105x elapsed=0:01:59.69    \nframe=  154 fps=1.3 q=53.0 size=       1KiB time=00:00:01.27 bitrate=   3.5kbits/s speed=0.0106x elapsed=0:02:00.27    \nframe=  155 fps=1.3 q=50.0 size=       1KiB time=00:00:01.28 bitrate=   3.5kbits/s speed=0.0106x elapsed=0:02:00.81    \nframe=  156 fps=1.3 q=53.0 size=       1KiB time=00:00:01.29 bitrate=   3.5kbits/s speed=0.0106x elapsed=0:02:01.41    \nframe=  158 fps=1.3 q=55.0 size=       1KiB time=00:00:01.30 bitrate=   3.4kbits/s speed=0.0107x elapsed=0:02:01.95    \nframe=  160 fps=1.3 q=55.0 size=       1KiB time=00:00:01.31 bitrate=   3.4kbits/s speed=0.0107x elapsed=0:02:02.49    \nframe=  161 fps=1.3 q=33.0 size=       1KiB time=00:00:01.33 bitrate=   3.4kbits/s speed=0.0108x elapsed=0:02:03.12    \nframe=  163 fps=1.3 q=53.0 size=       1KiB time=00:00:01.35 bitrate=   3.3kbits/s speed=0.0109x elapsed=0:02:03.74    \nframe=  164 fps=1.3 q=55.0 size=       1KiB time=00:00:01.35 bitrate=   3.3kbits/s speed=0.0109x elapsed=0:02:04.33    \nframe=  164 fps=1.3 q=55.0 size=       1KiB time=00:00:01.35 bitrate=   3.3kbits/s speed=0.0109x elapsed=0:02:05.00    \nframe=  165 fps=1.3 q=51.0 size=       1KiB time=00:00:01.36 bitrate=   3.3kbits/s speed=0.0109x elapsed=0:02:05.52    \nframe=  166 fps=1.3 q=55.0 size=       1KiB time=00:00:01.37 bitrate=   3.3kbits/s speed=0.0109x elapsed=0:02:06.05    \nframe=  167 fps=1.3 q=49.0 size=       1KiB time=00:00:01.38 bitrate=   3.2kbits/s speed=0.0109x elapsed=0:02:06.66    \nframe=  167 fps=1.3 q=49.0 size=       1KiB time=00:00:01.38 bitrate=   3.2kbits/s speed=0.0109x elapsed=0:02:07.29    \nframe=  169 fps=1.3 q=46.0 size=       1KiB time=00:00:01.39 bitrate=   3.2kbits/s speed=0.0109x elapsed=0:02:07.80    \nframe=  171 fps=1.3 q=52.0 size=       1KiB time=00:00:01.41 bitrate=   3.2kbits/s speed=0.011x elapsed=0:02:08.39    \nframe=  171 fps=1.3 q=52.0 size=       1KiB time=00:00:01.41 bitrate=   3.2kbits/s speed=0.011x elapsed=0:02:08.93    \nframe=  172 fps=1.3 q=55.0 size=       1KiB time=00:00:01.42 bitrate=   3.1kbits/s speed=0.011x elapsed=0:02:09.56    \nframe=  172 fps=1.3 q=55.0 size=       1KiB time=00:00:01.42 bitrate=   3.1kbits/s speed=0.011x elapsed=0:02:10.09    \nframe=  175 fps=1.3 q=52.0 size=       1KiB time=00:00:01.45 bitrate=   3.1kbits/s speed=0.0111x elapsed=0:02:10.61    \nframe=  177 fps=1.3 q=36.0 size=       1KiB time=00:00:01.46 bitrate=   3.1kbits/s speed=0.0112x elapsed=0:02:11.12    \nframe=  179 fps=1.4 q=54.0 size=       1KiB time=00:00:01.48 bitrate=   3.0kbits/s speed=0.0113x elapsed=0:02:11.64    \nframe=  180 fps=1.4 q=56.0 size=       1KiB time=00:00:01.48 bitrate=   3.0kbits/s speed=0.0112x elapsed=0:02:12.17    \nframe=  181 fps=1.4 q=52.0 size=       1KiB time=00:00:01.50 bitrate=   3.0kbits/s speed=0.0113x elapsed=0:02:12.69    \nframe=  182 fps=1.4 q=56.0 size=       1KiB time=00:00:01.50 bitrate=   3.0kbits/s speed=0.0113x elapsed=0:02:13.21    \nframe=  182 fps=1.4 q=56.0 size=       1KiB time=00:00:01.50 bitrate=   3.0kbits/s speed=0.0113x elapsed=0:02:13.79    \nframe=  183 fps=1.4 q=50.0 size=       1KiB time=00:00:01.51 bitrate=   3.0kbits/s speed=0.0113x elapsed=0:02:14.31    \nframe=  183 fps=1.4 q=50.0 size=       1KiB time=00:00:01.51 bitrate=   3.0kbits/s speed=0.0112x elapsed=0:02:14.82    \nframe=  185 fps=1.4 q=47.0 size=       1KiB time=00:00:01.53 bitrate=   2.9kbits/s speed=0.0113x elapsed=0:02:15.36    \nframe=  187 fps=1.4 q=53.0 size=       1KiB time=00:00:01.54 bitrate=   2.9kbits/s speed=0.0113x elapsed=0:02:15.95    \nframe=  187 fps=1.4 q=53.0 size=       1KiB time=00:00:01.55 bitrate=   2.9kbits/s speed=0.0114x elapsed=0:02:16.55    \nframe=  189 fps=1.4 q=49.0 size=       1KiB time=00:00:01.56 bitrate=   2.9kbits/s speed=0.0114x elapsed=0:02:17.19    \nframe=  192 fps=1.4 q=57.0 size=       1KiB time=00:00:01.59 bitrate=   2.8kbits/s speed=0.0116x elapsed=0:02:17.70    \nframe=  192 fps=1.4 q=57.0 size=       1KiB time=00:00:01.59 bitrate=   2.8kbits/s speed=0.0115x elapsed=0:02:18.21    \nframe=  194 fps=1.4 q=57.0 size=       1KiB time=00:00:01.60 bitrate=   2.8kbits/s speed=0.0116x elapsed=0:02:18.73    \nframe=  195 fps=1.4 q=55.0 size=       1KiB time=00:00:01.61 bitrate=   2.8kbits/s speed=0.0116x elapsed=0:02:19.25    \nframe=  196 fps=1.4 q=57.0 size=       1KiB time=00:00:01.62 bitrate=   2.8kbits/s speed=0.0116x elapsed=0:02:19.76    \nframe=  196 fps=1.4 q=57.0 size=       1KiB time=00:00:01.62 bitrate=   2.8kbits/s speed=0.0116x elapsed=0:02:20.28    \nframe=  197 fps=1.4 q=53.0 size=       1KiB time=00:00:01.63 bitrate=   2.7kbits/s speed=0.0116x elapsed=0:02:20.79    \nframe=  198 fps=1.4 q=57.0 size=       1KiB time=00:00:01.64 bitrate=   2.7kbits/s speed=0.0116x elapsed=0:02:21.31    \nframe=  199 fps=1.4 q=55.0 size=       1KiB time=00:00:01.65 bitrate=   2.7kbits/s speed=0.0116x elapsed=0:02:21.82    \nframe=  200 fps=1.4 q=57.0 size=       1KiB time=00:00:01.65 bitrate=   2.7kbits/s speed=0.0117x elapsed=0:02:22.34    \nframe=  202 fps=1.4 q=57.0 size=       1KiB time=00:00:01.67 bitrate=   2.7kbits/s speed=0.0117x elapsed=0:02:22.86    \nframe=  203 fps=1.4 q=54.0 size=       1KiB time=00:00:01.68 bitrate=   2.7kbits/s speed=0.0117x elapsed=0:02:23.38    \nframe=  205 fps=1.4 q=50.0 size=       1KiB time=00:00:01.70 bitrate=   2.6kbits/s speed=0.0118x elapsed=0:02:23.89    \nframe=  207 fps=1.4 q=54.0 size=       1KiB time=00:00:01.71 bitrate=   2.6kbits/s speed=0.0119x elapsed=0:02:24.40    \nframe=  210 fps=1.4 q=58.0 size=       1KiB time=00:00:01.74 bitrate=   2.6kbits/s speed=0.012x elapsed=0:02:24.92    \nframe=  211 fps=1.5 q=56.0 size=       1KiB time=00:00:01.75 bitrate=   2.6kbits/s speed=0.012x elapsed=0:02:25.44    \nframe=  212 fps=1.5 q=58.0 size=       1KiB time=00:00:01.75 bitrate=   2.5kbits/s speed=0.012x elapsed=0:02:25.95    \nframe=  214 fps=1.5 q=58.0 size=       1KiB time=00:00:01.77 bitrate=   2.5kbits/s speed=0.0121x elapsed=0:02:26.46    \nframe=  214 fps=1.5 q=58.0 size=       1KiB time=00:00:01.77 bitrate=   2.5kbits/s speed=0.0121x elapsed=0:02:26.99    \nframe=  215 fps=1.5 q=52.0 size=       1KiB time=00:00:01.78 bitrate=   2.5kbits/s speed=0.0121x elapsed=0:02:27.50    \nframe=  215 fps=1.5 q=52.0 size=       1KiB time=00:00:01.78 bitrate=   2.5kbits/s speed=0.012x elapsed=0:02:28.01    \nframe=  217 fps=1.5 q=49.0 size=       1KiB time=00:00:01.80 bitrate=   2.5kbits/s speed=0.0121x elapsed=0:02:28.53    \nframe=  219 fps=1.5 q=55.0 size=       1KiB time=00:00:01.81 bitrate=   2.5kbits/s speed=0.0122x elapsed=0:02:29.04    \nframe=  219 fps=1.5 q=55.0 size=       1KiB time=00:00:01.81 bitrate=   2.5kbits/s speed=0.0121x elapsed=0:02:29.56    \nframe=  220 fps=1.5 q=58.0 size=       1KiB time=00:00:01.82 bitrate=   2.5kbits/s speed=0.0122x elapsed=0:02:30.08    \nframe=  223 fps=1.5 q=54.0 size=       1KiB time=00:00:01.85 bitrate=   2.4kbits/s speed=0.0123x elapsed=0:02:30.59    \nframe=  223 fps=1.5 q=54.0 size=       1KiB time=00:00:01.85 bitrate=   2.4kbits/s speed=0.0122x elapsed=0:02:31.10    \nframe=  225 fps=1.5 q=39.0 size=       1KiB time=00:00:01.86 bitrate=   2.4kbits/s speed=0.0123x elapsed=0:02:31.63    \nframe=  226 fps=1.5 q=58.0 size=       1KiB time=00:00:01.87 bitrate=   2.4kbits/s speed=0.0123x elapsed=0:02:32.14    \nframe=  227 fps=1.5 q=56.0 size=       1KiB time=00:00:01.88 bitrate=   2.4kbits/s speed=0.0123x elapsed=0:02:32.66    \nframe=  227 fps=1.5 q=56.0 size=       1KiB time=00:00:01.88 bitrate=   2.4kbits/s speed=0.0123x elapsed=0:02:33.17    \nframe=  229 fps=1.5 q=54.0 size=       1KiB time=00:00:01.90 bitrate=   2.4kbits/s speed=0.0124x elapsed=0:02:33.69    \nframe=  230 fps=1.5 q=58.0 size=       1KiB time=00:00:01.90 bitrate=   2.3kbits/s speed=0.0124x elapsed=0:02:34.20    \nframe=  231 fps=1.5 q=52.0 size=       1KiB time=00:00:01.91 bitrate=   2.3kbits/s speed=0.0124x elapsed=0:02:34.72    \nframe=  231 fps=1.5 q=52.0 size=       1KiB time=00:00:01.91 bitrate=   2.3kbits/s speed=0.0123x elapsed=0:02:35.23    \nframe=  234 fps=1.5 q=58.0 size=       1KiB time=00:00:01.94 bitrate=   2.3kbits/s speed=0.0125x elapsed=0:02:35.75    \nframe=  235 fps=1.5 q=55.0 size=       1KiB time=00:00:01.95 bitrate=   2.3kbits/s speed=0.0125x elapsed=0:02:36.26    \nframe=  235 fps=1.5 q=55.0 size=       1KiB time=00:00:01.95 bitrate=   2.3kbits/s speed=0.0124x elapsed=0:02:36.78    \nframe=  236 fps=1.5 q=58.0 size=       1KiB time=00:00:01.95 bitrate=   2.3kbits/s speed=0.0124x elapsed=0:02:37.30    \nframe=  238 fps=1.5 q=58.0 size=       1KiB time=00:00:01.97 bitrate=   2.3kbits/s speed=0.0125x elapsed=0:02:37.80    \nframe=  239 fps=1.5 q=54.0 size=       1KiB time=00:00:01.98 bitrate=   2.3kbits/s speed=0.0125x elapsed=0:02:38.33    \nframe=  241 fps=1.5 q=40.0 size=       1KiB time=00:00:02.00 bitrate=   2.2kbits/s speed=0.0126x elapsed=0:02:38.84    \nframe=  243 fps=1.5 q=56.0 size=       1KiB time=00:00:02.01 bitrate=   2.2kbits/s speed=0.0127x elapsed=0:02:39.36    \nframe=  244 fps=1.5 q=58.0 size=       1KiB time=00:00:02.02 bitrate=   2.2kbits/s speed=0.0127x elapsed=0:02:39.87    \nframe=  245 fps=1.5 q=54.0 size=       1KiB time=00:00:02.03 bitrate=   2.2kbits/s speed=0.0127x elapsed=0:02:40.40    \nframe=  246 fps=1.5 q=58.0 size=       1KiB time=00:00:02.04 bitrate=   2.2kbits/s speed=0.0127x elapsed=0:02:40.91    \nframe=  246 fps=1.5 q=58.0 size=       1KiB time=00:00:02.04 bitrate=   2.2kbits/s speed=0.0126x elapsed=0:02:41.44    \nframe=  247 fps=1.5 q=53.0 size=       1KiB time=00:00:02.05 bitrate=   2.2kbits/s speed=0.0127x elapsed=0:02:41.95    \nframe=  247 fps=1.5 q=53.0 size=       1KiB time=00:00:02.05 bitrate=   2.2kbits/s speed=0.0126x elapsed=0:02:42.46    \nframe=  249 fps=1.5 q=50.0 size=       1KiB time=00:00:02.06 bitrate=   2.2kbits/s speed=0.0127x elapsed=0:02:42.99    \nframe=  251 fps=1.5 q=55.0 size=       1KiB time=00:00:02.08 bitrate=   2.2kbits/s speed=0.0127x elapsed=0:02:43.50    \nframe=  251 fps=1.5 q=55.0 size=       1KiB time=00:00:02.08 bitrate=   2.2kbits/s speed=0.0127x elapsed=0:02:44.02    \nframe=  252 fps=1.5 q=59.0 size=       1KiB time=00:00:02.09 bitrate=   2.1kbits/s speed=0.0127x elapsed=0:02:44.54    \nframe=  255 fps=1.5 q=55.0 size=       1KiB time=00:00:02.11 bitrate=   2.1kbits/s speed=0.0128x elapsed=0:02:45.05    \nframe=  257 fps=1.6 q=41.0 size=       1KiB time=00:00:02.13 bitrate=   2.1kbits/s speed=0.0129x elapsed=0:02:45.56    \nframe=  258 fps=1.6 q=59.0 size=       1KiB time=00:00:02.14 bitrate=   2.1kbits/s speed=0.0129x elapsed=0:02:46.07    \nframe=  259 fps=1.6 q=57.0 size=       1KiB time=00:00:02.15 bitrate=   2.1kbits/s speed=0.0129x elapsed=0:02:46.73    \nframe=  262 fps=1.6 q=59.0 size=       1KiB time=00:00:02.17 bitrate=   2.1kbits/s speed=0.013x elapsed=0:02:47.25    \nframe=  263 fps=1.6 q=57.0 size=       1KiB time=00:00:02.18 bitrate=   2.1kbits/s speed=0.013x elapsed=0:02:47.77    \nframe=  263 fps=1.6 q=57.0 size=       1KiB time=00:00:02.18 bitrate=   2.1kbits/s speed=0.013x elapsed=0:02:48.34    \nframe=  265 fps=1.6 q=51.0 size=       1KiB time=00:00:02.20 bitrate=   2.0kbits/s speed=0.013x elapsed=0:02:48.89    \nframe=  266 fps=1.6 q=59.0 size=       1KiB time=00:00:02.20 bitrate=   2.0kbits/s speed=0.013x elapsed=0:02:49.40    \nframe=  267 fps=1.6 q=56.0 size=       1KiB time=00:00:02.21 bitrate=   2.0kbits/s speed=0.013x elapsed=0:02:49.93    \nframe=  267 fps=1.6 q=56.0 size=       1KiB time=00:00:02.21 bitrate=   2.0kbits/s speed=0.013x elapsed=0:02:50.49    \nframe=  268 fps=1.6 q=59.0 size=       1KiB time=00:00:02.22 bitrate=   2.0kbits/s speed=0.013x elapsed=0:02:51.02    \nframe=  270 fps=1.6 q=59.0 size=       1KiB time=00:00:02.24 bitrate=   2.0kbits/s speed=0.0131x elapsed=0:02:51.64    \nframe=  272 fps=1.6 q=59.0 size=       1KiB time=00:00:02.25 bitrate=   2.0kbits/s speed=0.0131x elapsed=0:02:52.19    \nframe=  273 fps=1.6 q=42.0 size=       1KiB time=00:00:02.26 bitrate=   2.0kbits/s speed=0.0131x elapsed=0:02:52.70    \nframe=  274 fps=1.6 q=59.0 size=       1KiB time=00:00:02.27 bitrate=   2.0kbits/s speed=0.0131x elapsed=0:02:53.22    \nframe=  275 fps=1.6 q=58.0 size=       1KiB time=00:00:02.28 bitrate=   2.0kbits/s speed=0.0131x elapsed=0:02:53.73    \nframe=  275 fps=1.6 q=58.0 size=       1KiB time=00:00:02.28 bitrate=   2.0kbits/s speed=0.0131x elapsed=0:02:54.24    \nframe=  277 fps=1.6 q=56.0 size=       1KiB time=00:00:02.30 bitrate=   1.9kbits/s speed=0.0132x elapsed=0:02:54.76    \nframe=  278 fps=1.6 q=59.0 size=       1KiB time=00:00:02.30 bitrate=   1.9kbits/s speed=0.0132x elapsed=0:02:55.28    \nframe=  279 fps=1.6 q=54.0 size=       1KiB time=00:00:02.31 bitrate=   1.9kbits/s speed=0.0132x elapsed=0:02:55.80    \nframe=  279 fps=1.6 q=54.0 size=       1KiB time=00:00:02.31 bitrate=   1.9kbits/s speed=0.0131x elapsed=0:02:56.31    \nframe=  280 fps=1.6 q=59.0 size=       1KiB time=00:00:02.32 bitrate=   1.9kbits/s speed=0.0131x elapsed=0:02:56.82    \nframe=  282 fps=1.6 q=59.0 size=       1KiB time=00:00:02.34 bitrate=   1.9kbits/s speed=0.0132x elapsed=0:02:57.34    \nframe=  283 fps=1.6 q=56.0 size=       1KiB time=00:00:02.35 bitrate=   1.9kbits/s speed=0.0132x elapsed=0:02:57.87    \nframe=  284 fps=1.6 q=60.0 size=       1KiB time=00:00:02.35 bitrate=   1.9kbits/s speed=0.0132x elapsed=0:02:58.38    \nframe=  285 fps=1.6 q=53.0 size=       1KiB time=00:00:02.36 bitrate=   1.9kbits/s speed=0.0132x elapsed=0:02:58.88    \nframe=  287 fps=1.6 q=56.0 size=       1KiB time=00:00:02.38 bitrate=   1.9kbits/s speed=0.0133x elapsed=0:02:59.41    \nframe=  289 fps=1.6 q=43.0 size=       1KiB time=00:00:02.40 bitrate=   1.9kbits/s speed=0.0133x elapsed=0:02:59.92    \nframe=  291 fps=1.6 q=58.0 size=       1KiB time=00:00:02.41 bitrate=   1.9kbits/s speed=0.0134x elapsed=0:03:00.43    \nframe=  294 fps=1.6 q=60.0 size=       1KiB time=00:00:02.44 bitrate=   1.8kbits/s speed=0.0135x elapsed=0:03:00.95    \nframe=  295 fps=1.6 q=55.0 size=       1KiB time=00:00:02.45 bitrate=   1.8kbits/s speed=0.0135x elapsed=0:03:01.47    \nframe=  295 fps=1.6 q=55.0 size=       1KiB time=00:00:02.45 bitrate=   1.8kbits/s speed=0.0135x elapsed=0:03:01.98    \nframe=  297 fps=1.6 q=52.0 size=       1KiB time=00:00:02.46 bitrate=   1.8kbits/s speed=0.0135x elapsed=0:03:02.50    \nframe=  299 fps=1.6 q=57.0 size=       1KiB time=00:00:02.47 bitrate=   1.8kbits/s speed=0.0135x elapsed=0:03:03.01    \nframe=  300 fps=1.6 q=60.0 size=       1KiB time=00:00:02.49 bitrate=   1.8kbits/s speed=0.0135x elapsed=0:03:04.23    \nframe=  301 fps=1.6 q=54.0 size=       1KiB time=00:00:02.50 bitrate=   1.8kbits/s speed=0.0135x elapsed=0:03:04.74    \nframe=  301 fps=1.6 q=54.0 size=       1KiB time=00:00:02.50 bitrate=   1.8kbits/s speed=0.0135x elapsed=0:03:05.26    \nframe=  303 fps=1.6 q=57.0 size=       1KiB time=00:00:02.51 bitrate=   1.8kbits/s speed=0.0135x elapsed=0:03:05.79    \nframe=  304 fps=1.6 q=60.0 size=       1KiB time=00:00:02.52 bitrate=   1.8kbits/s speed=0.0136x elapsed=0:03:06.29    \nframe=  306 fps=1.6 q=60.0 size=       1KiB time=00:00:02.54 bitrate=   1.8kbits/s speed=0.0136x elapsed=0:03:06.80    \nframe=  307 fps=1.6 q=59.0 size=       1KiB time=00:00:02.55 bitrate=   1.8kbits/s speed=0.0136x elapsed=0:03:07.33    \nframe=  309 fps=1.6 q=57.0 size=       1KiB time=00:00:02.56 bitrate=   1.7kbits/s speed=0.0137x elapsed=0:03:07.84    \nframe=  310 fps=1.6 q=60.0 size=       1KiB time=00:00:02.57 bitrate=   1.7kbits/s speed=0.0137x elapsed=0:03:08.36    \nframe=  310 fps=1.6 q=60.0 size=       1KiB time=00:00:02.57 bitrate=   1.7kbits/s speed=0.0136x elapsed=0:03:08.88    \nframe=  311 fps=1.6 q=55.0 size=       1KiB time=00:00:02.58 bitrate=   1.7kbits/s speed=0.0136x elapsed=0:03:09.39    \nframe=  311 fps=1.6 q=55.0 size=       1KiB time=00:00:02.58 bitrate=   1.7kbits/s speed=0.0136x elapsed=0:03:09.90    \nframe=  313 fps=1.6 q=53.0 size=       1KiB time=00:00:02.60 bitrate=   1.7kbits/s speed=0.0137x elapsed=0:03:10.42    \nframe=  314 fps=1.6 q=60.0 size=       1KiB time=00:00:02.60 bitrate=   1.7kbits/s speed=0.0137x elapsed=0:03:10.94    \nframe=  315 fps=1.6 q=57.0 size=       1KiB time=00:00:02.61 bitrate=   1.7kbits/s speed=0.0137x elapsed=0:03:11.46    \nframe=  317 fps=1.7 q=54.0 size=       1KiB time=00:00:02.63 bitrate=   1.7kbits/s speed=0.0137x elapsed=0:03:11.96    \nframe=  319 fps=1.7 q=57.0 size=       1KiB time=00:00:02.65 bitrate=   1.7kbits/s speed=0.0138x elapsed=0:03:12.49    \nframe=  321 fps=1.7 q=44.0 size=       1KiB time=00:00:02.66 bitrate=   1.7kbits/s speed=0.0138x elapsed=0:03:13.01    \nframe=  322 fps=1.7 q=60.0 size=       1KiB time=00:00:02.67 bitrate=   1.7kbits/s speed=0.0138x elapsed=0:03:13.52    \nframe=  323 fps=1.7 q=59.0 size=       1KiB time=00:00:02.68 bitrate=   1.7kbits/s speed=0.0138x elapsed=0:03:14.02    \nframe=  323 fps=1.7 q=59.0 size=       1KiB time=00:00:02.68 bitrate=   1.7kbits/s speed=0.0138x elapsed=0:03:14.55    \nframe=  324 fps=1.7 q=60.0 size=       1KiB time=00:00:02.69 bitrate=   1.7kbits/s speed=0.0138x elapsed=0:03:15.06    \nframe=  325 fps=1.7 q=57.0 size=       1KiB time=00:00:02.70 bitrate=   1.7kbits/s speed=0.0138x elapsed=0:03:15.58    \nframe=  326 fps=1.7 q=60.0 size=       1KiB time=00:00:02.70 bitrate=   1.7kbits/s speed=0.0138x elapsed=0:03:16.09    \nframe=  327 fps=1.7 q=55.0 size=       1KiB time=00:00:02.71 bitrate=   1.6kbits/s speed=0.0138x elapsed=0:03:16.61    \nframe=  327 fps=1.7 q=55.0 size=       1KiB time=00:00:02.71 bitrate=   1.6kbits/s speed=0.0138x elapsed=0:03:17.12    \nframe=  329 fps=1.7 q=53.0 size=       1KiB time=00:00:02.73 bitrate=   1.6kbits/s speed=0.0138x elapsed=0:03:17.64    \nframe=  330 fps=1.7 q=60.0 size=       1KiB time=00:00:02.74 bitrate=   1.6kbits/s speed=0.0138x elapsed=0:03:18.15    \nframe=  332 fps=1.7 q=60.0 size=       1KiB time=00:00:02.75 bitrate=   1.6kbits/s speed=0.0139x elapsed=0:03:18.67    \nframe=  334 fps=1.7 q=60.0 size=       1KiB time=00:00:02.77 bitrate=   1.6kbits/s speed=0.0139x elapsed=0:03:19.19    \nframe=  336 fps=1.7 q=60.0 size=       1KiB time=00:00:02.79 bitrate=   1.6kbits/s speed=0.014x elapsed=0:03:19.70    \nframe=  338 fps=1.7 q=60.0 size=       1KiB time=00:00:02.80 bitrate=   1.6kbits/s speed=0.014x elapsed=0:03:20.22    \nframe=  339 fps=1.7 q=59.0 size=       1KiB time=00:00:02.81 bitrate=   1.6kbits/s speed=0.014x elapsed=0:03:20.73    \nframe=  340 fps=1.7 q=60.0 size=       1KiB time=00:00:02.82 bitrate=   1.6kbits/s speed=0.014x elapsed=0:03:21.24    \nframe=  341 fps=1.7 q=57.0 size=       1KiB time=00:00:02.83 bitrate=   1.6kbits/s speed=0.014x elapsed=0:03:21.76    \nframe=  342 fps=1.7 q=60.0 size=       1KiB time=00:00:02.84 bitrate=   1.6kbits/s speed=0.014x elapsed=0:03:22.28    \nframe=  342 fps=1.7 q=60.0 size=       1KiB time=00:00:02.84 bitrate=   1.6kbits/s speed=0.014x elapsed=0:03:22.79    \nframe=  343 fps=1.7 q=59.0 size=       1KiB time=00:00:02.85 bitrate=   1.6kbits/s speed=0.014x elapsed=0:03:23.31    \nframe=  344 fps=1.7 q=60.0 size=       1KiB time=00:00:02.85 bitrate=   1.6kbits/s speed=0.014x elapsed=0:03:23.83    \nframe=  346 fps=1.7 q=60.0 size=       1KiB time=00:00:02.87 bitrate=   1.6kbits/s speed=0.0141x elapsed=0:03:24.34    \nframe=  347 fps=1.7 q=57.0 size=       1KiB time=00:00:02.88 bitrate=   1.6kbits/s speed=0.0141x elapsed=0:03:24.86    \nframe=  348 fps=1.7 q=61.0 size=       1KiB time=00:00:02.89 bitrate=   1.5kbits/s speed=0.0141x elapsed=0:03:25.37    \nframe=  348 fps=1.7 q=61.0 size=       1KiB time=00:00:02.89 bitrate=   1.5kbits/s speed=0.014x elapsed=0:03:25.88    \nframe=  351 fps=1.7 q=57.0 size=       1KiB time=00:00:02.91 bitrate=   1.5kbits/s speed=0.0141x elapsed=0:03:26.40    \nframe=  352 fps=1.7 q=61.0 size=       1KiB time=00:00:02.92 bitrate=   1.5kbits/s speed=0.0141x elapsed=0:03:26.92    \nframe=  354 fps=1.7 q=61.0 size=       1KiB time=00:00:02.94 bitrate=   1.5kbits/s speed=0.0142x elapsed=0:03:27.43    \nframe=  355 fps=1.7 q=59.0 size=       1KiB time=00:00:02.95 bitrate=   1.5kbits/s speed=0.0142x elapsed=0:03:27.95    \nframe=  356 fps=1.7 q=61.0 size=       1KiB time=00:00:02.95 bitrate=   1.5kbits/s speed=0.0142x elapsed=0:03:28.47    \nframe=  357 fps=1.7 q=57.0 size=       1KiB time=00:00:02.96 bitrate=   1.5kbits/s speed=0.0142x elapsed=0:03:28.98    \nframe=  358 fps=1.7 q=61.0 size=       1KiB time=00:00:02.97 bitrate=   1.5kbits/s speed=0.0142x elapsed=0:03:29.50    \nframe=  359 fps=1.7 q=59.0 size=       1KiB time=00:00:02.98 bitrate=   1.5kbits/s speed=0.0142x elapsed=0:03:30.01    \nframe=  359 fps=1.7 q=59.0 size=       1KiB time=00:00:02.98 bitrate=   1.5kbits/s speed=0.0142x elapsed=0:03:30.53    \nframe=  361 fps=1.7 q=53.0 size=       1KiB time=00:00:03.00 bitrate=   1.5kbits/s speed=0.0142x elapsed=0:03:31.05    \nframe=  362 fps=1.7 q=61.0 size=       1KiB time=00:00:03.00 bitrate=   1.5kbits/s speed=0.0142x elapsed=0:03:31.56    \nframe=  364 fps=1.7 q=61.0 size=       1KiB time=00:00:03.02 bitrate=   1.5kbits/s speed=0.0143x elapsed=0:03:32.07    \nframe=  366 fps=1.7 q=61.0 size=       1KiB time=00:00:03.04 bitrate=   1.5kbits/s speed=0.0143x elapsed=0:03:32.60    \nframe=  368 fps=1.7 q=61.0 size=       1KiB time=00:00:03.05 bitrate=   1.5kbits/s speed=0.0144x elapsed=0:03:33.11    \nframe=  370 fps=1.7 q=61.0 size=       1KiB time=00:00:03.07 bitrate=   1.5kbits/s speed=0.0144x elapsed=0:03:33.62    \nframe=  372 fps=1.7 q=61.0 size=       1KiB time=00:00:03.09 bitrate=   1.4kbits/s speed=0.0144x elapsed=0:03:34.14    \nframe=  374 fps=1.7 q=61.0 size=       1KiB time=00:00:03.10 bitrate=   1.4kbits/s speed=0.0145x elapsed=0:03:34.65    \nframe=  374 fps=1.7 q=61.0 size=       1KiB time=00:00:03.10 bitrate=   1.4kbits/s speed=0.0144x elapsed=0:03:35.17    \nframe=  375 fps=1.7 q=60.0 size=       1KiB time=00:00:03.11 bitrate=   1.4kbits/s speed=0.0144x elapsed=0:03:35.69    \nframe=  376 fps=1.7 q=61.0 size=       1KiB time=00:00:03.12 bitrate=   1.4kbits/s speed=0.0145x elapsed=0:03:36.20    \nframe=  378 fps=1.7 q=61.0 size=       1KiB time=00:00:03.14 bitrate=   1.4kbits/s speed=0.0145x elapsed=0:03:36.71    \nframe=  379 fps=1.7 q=58.0 size=       1KiB time=00:00:03.15 bitrate=   1.4kbits/s speed=0.0145x elapsed=0:03:37.24    \nframe=  379 fps=1.7 q=58.0 size=       1KiB time=00:00:03.15 bitrate=   1.4kbits/s speed=0.0145x elapsed=0:03:37.75    \nframe=  382 fps=1.8 q=61.0 size=       1KiB time=00:00:03.17 bitrate=   1.4kbits/s speed=0.0145x elapsed=0:03:38.26    \nframe=  384 fps=1.8 q=61.0 size=       1KiB time=00:00:03.19 bitrate=   1.4kbits/s speed=0.0146x elapsed=0:03:38.78    \nframe=  386 fps=1.8 q=61.0 size=       1KiB time=00:00:03.20 bitrate=   1.4kbits/s speed=0.0146x elapsed=0:03:39.29    \nframe=  387 fps=1.8 q=60.0 size=       1KiB time=00:00:03.21 bitrate=   1.4kbits/s speed=0.0146x elapsed=0:03:39.81    \nframe=  388 fps=1.8 q=61.0 size=       1KiB time=00:00:03.22 bitrate=   1.4kbits/s speed=0.0146x elapsed=0:03:40.32    \nframe=  390 fps=1.8 q=61.0 size=       1KiB time=00:00:03.24 bitrate=   1.4kbits/s speed=0.0147x elapsed=0:03:40.84    \nframe=  391 fps=1.8 q=60.0 size=       1KiB time=00:00:03.25 bitrate=   1.4kbits/s speed=0.0147x elapsed=0:03:41.35    \nframe=  392 fps=1.8 q=61.0 size=       1KiB time=00:00:03.25 bitrate=   1.4kbits/s speed=0.0147x elapsed=0:03:41.87    \nframe=  393 fps=1.8 q=54.0 size=       1KiB time=00:00:03.26 bitrate=   1.4kbits/s speed=0.0147x elapsed=0:03:42.39    \nframe=  395 fps=1.8 q=58.0 size=       1KiB time=00:00:03.28 bitrate=   1.4kbits/s speed=0.0147x elapsed=0:03:42.90    \nframe=  396 fps=1.8 q=61.0 size=       1KiB time=00:00:03.29 bitrate=   1.4kbits/s speed=0.0147x elapsed=0:03:43.42    \nframe=  397 fps=1.8 q=55.0 size=       1KiB time=00:00:03.30 bitrate=   1.4kbits/s speed=0.0147x elapsed=0:03:43.93    \nframe=  399 fps=1.8 q=58.0 size=       1KiB time=00:00:03.31 bitrate=   1.4kbits/s speed=0.0148x elapsed=0:03:44.46    \nframe=  401 fps=1.8 q=47.0 size=       1KiB time=00:00:03.33 bitrate=   1.3kbits/s speed=0.0148x elapsed=0:03:44.97    \nframe=  403 fps=1.8 q=60.0 size=       1KiB time=00:00:03.35 bitrate=   1.3kbits/s speed=0.0149x elapsed=0:03:45.48    \nframe=  403 fps=1.8 q=60.0 size=       1KiB time=00:00:03.35 bitrate=   1.3kbits/s speed=0.0148x elapsed=0:03:46.00    \nframe=  405 fps=1.8 q=58.0 size=       1KiB time=00:00:03.36 bitrate=   1.3kbits/s speed=0.0149x elapsed=0:03:46.51    \nframe=  406 fps=1.8 q=61.0 size=       1KiB time=00:00:03.37 bitrate=   1.3kbits/s speed=0.0149x elapsed=0:03:47.03    \nframe=  406 fps=1.8 q=61.0 size=       1KiB time=00:00:03.37 bitrate=   1.3kbits/s speed=0.0148x elapsed=0:03:47.54    \nframe=  407 fps=1.8 q=56.0 size=       1KiB time=00:00:03.38 bitrate=   1.3kbits/s speed=0.0148x elapsed=0:03:48.06    \nframe=  407 fps=1.8 q=56.0 size=       1KiB time=00:00:03.38 bitrate=   1.3kbits/s speed=0.0148x elapsed=0:03:48.58    \nframe=  410 fps=1.8 q=61.0 size=       1KiB time=00:00:03.40 bitrate=   1.3kbits/s speed=0.0149x elapsed=0:03:49.10    \nframe=  411 fps=1.8 q=58.0 size=       1KiB time=00:00:03.41 bitrate=   1.3kbits/s speed=0.0149x elapsed=0:03:49.60    \nframe=  412 fps=1.8 q=60.0 size=       1KiB time=00:00:03.42 bitrate=   1.3kbits/s speed=0.0149x elapsed=0:03:50.12    \nframe=  414 fps=1.8 q=60.0 size=       1KiB time=00:00:03.43 bitrate=   1.3kbits/s speed=0.0149x elapsed=0:03:50.64    \nframe=  416 fps=1.8 q=60.0 size=       1KiB time=00:00:03.45 bitrate=   1.3kbits/s speed=0.015x elapsed=0:03:51.22    \nframe=  418 fps=1.8 q=60.0 size=       1KiB time=00:00:03.47 bitrate=   1.3kbits/s speed=0.015x elapsed=0:03:51.75    \nframe=  419 fps=1.8 q=59.0 size=       1KiB time=00:00:03.48 bitrate=   1.3kbits/s speed=0.015x elapsed=0:03:52.27    \nframe=  420 fps=1.8 q=60.0 size=       1KiB time=00:00:03.49 bitrate=   1.3kbits/s speed=0.015x elapsed=0:03:52.82    \nframe=  422 fps=1.8 q=60.0 size=       1KiB time=00:00:03.50 bitrate=   1.3kbits/s speed=0.015x elapsed=0:03:53.40    \nframe=  422 fps=1.8 q=60.0 size=       1KiB time=00:00:03.50 bitrate=   1.3kbits/s speed=0.015x elapsed=0:03:54.06    \nframe=  423 fps=1.8 q=56.0 size=       1KiB time=00:00:03.51 bitrate=   1.3kbits/s speed=0.015x elapsed=0:03:54.60    \nframe=  425 fps=1.8 q=54.0 size=       1KiB time=00:00:03.53 bitrate=   1.3kbits/s speed=0.015x elapsed=0:03:55.16    \nframe=  426 fps=1.8 q=60.0 size=       1KiB time=00:00:03.54 bitrate=   1.3kbits/s speed=0.015x elapsed=0:03:55.72    \nframe=  428 fps=1.8 q=60.0 size=       1KiB time=00:00:03.55 bitrate=   1.3kbits/s speed=0.0151x elapsed=0:03:56.26    \nframe=  430 fps=1.8 q=60.0 size=       1KiB time=00:00:03.57 bitrate=   1.3kbits/s speed=0.0151x elapsed=0:03:56.80    \nframe=  433 fps=1.8 q=47.0 size=       1KiB time=00:00:03.60 bitrate=   1.2kbits/s speed=0.0152x elapsed=0:03:57.37    \nframe=  435 fps=1.8 q=59.0 size=       1KiB time=00:00:03.61 bitrate=   1.2kbits/s speed=0.0152x elapsed=0:03:57.93    \nframe=  436 fps=1.8 q=60.0 size=       1KiB time=00:00:03.62 bitrate=   1.2kbits/s speed=0.0152x elapsed=0:03:58.45    \nframe=  438 fps=1.8 q=60.0 size=       1KiB time=00:00:03.64 bitrate=   1.2kbits/s speed=0.0152x elapsed=0:03:59.00    \nframe=  439 fps=1.8 q=59.0 size=       1KiB time=00:00:03.65 bitrate=   1.2kbits/s speed=0.0152x elapsed=0:03:59.55    \nframe=  441 fps=1.8 q=54.0 size=       1KiB time=00:00:03.66 bitrate=   1.2kbits/s speed=0.0153x elapsed=0:04:00.15    \nframe=  443 fps=1.8 q=57.0 size=       1KiB time=00:00:03.68 bitrate=   1.2kbits/s speed=0.0153x elapsed=0:04:00.75    \nframe=  444 fps=1.8 q=60.0 size=       1KiB time=00:00:03.69 bitrate=   1.2kbits/s speed=0.0153x elapsed=0:04:01.29    \nframe=  445 fps=1.8 q=54.0 size=       1KiB time=00:00:03.70 bitrate=   1.2kbits/s speed=0.0153x elapsed=0:04:01.81    \nframe=  447 fps=1.8 q=57.0 size=       1KiB time=00:00:03.71 bitrate=   1.2kbits/s speed=0.0153x elapsed=0:04:02.34    \nframe=  448 fps=1.8 q=60.0 size=       1KiB time=00:00:03.72 bitrate=   1.2kbits/s speed=0.0153x elapsed=0:04:02.86    \nframe=  449 fps=1.8 q=47.0 size=       1KiB time=00:00:03.73 bitrate=   1.2kbits/s speed=0.0153x elapsed=0:04:03.37    \nframe=  451 fps=1.8 q=59.0 size=       1KiB time=00:00:03.75 bitrate=   1.2kbits/s speed=0.0154x elapsed=0:04:03.89    \nframe=  451 fps=1.8 q=59.0 size=       1KiB time=00:00:03.75 bitrate=   1.2kbits/s speed=0.0153x elapsed=0:04:04.44    \nframe=  453 fps=1.8 q=57.0 size=       1KiB time=00:00:03.76 bitrate=   1.2kbits/s speed=0.0154x elapsed=0:04:04.97    \nframe=  455 fps=1.9 q=59.0 size=       1KiB time=00:00:03.78 bitrate=   1.2kbits/s speed=0.0154x elapsed=0:04:05.50    \nframe=  455 fps=1.8 q=59.0 size=       1KiB time=00:00:03.78 bitrate=   1.2kbits/s speed=0.0154x elapsed=0:04:06.08    \nframe=  457 fps=1.9 q=53.0 size=       1KiB time=00:00:03.80 bitrate=   1.2kbits/s speed=0.0154x elapsed=0:04:06.62    \nframe=  458 fps=1.9 q=60.0 size=       1KiB time=00:00:03.80 bitrate=   1.2kbits/s speed=0.0154x elapsed=0:04:07.14    \nframe=  459 fps=1.9 q=57.0 size=       1KiB time=00:00:03.81 bitrate=   1.2kbits/s speed=0.0154x elapsed=0:04:07.77    \nframe=  462 fps=1.9 q=60.0 size=       1KiB time=00:00:03.84 bitrate=   1.2kbits/s speed=0.0155x elapsed=0:04:08.32    \nframe=  463 fps=1.9 q=57.0 size=       1KiB time=00:00:03.85 bitrate=   1.2kbits/s speed=0.0155x elapsed=0:04:08.83    \nframe=  464 fps=1.9 q=60.0 size=       1KiB time=00:00:03.85 bitrate=   1.2kbits/s speed=0.0155x elapsed=0:04:09.37    \nframe=  465 fps=1.9 q=46.0 size=       1KiB time=00:00:03.86 bitrate=   1.2kbits/s speed=0.0155x elapsed=0:04:09.88    \nframe=  467 fps=1.9 q=57.0 size=       1KiB time=00:00:03.88 bitrate=   1.2kbits/s speed=0.0155x elapsed=0:04:10.41    \nframe=  469 fps=1.9 q=54.0 size=       1KiB time=00:00:03.90 bitrate=   1.1kbits/s speed=0.0155x elapsed=0:04:10.93    \nframe=  470 fps=1.9 q=60.0 size=       1KiB time=00:00:03.90 bitrate=   1.1kbits/s speed=0.0155x elapsed=0:04:11.45    \nframe=  470 fps=1.9 q=60.0 size=       1KiB time=00:00:03.90 bitrate=   1.1kbits/s speed=0.0155x elapsed=0:04:11.96    \nframe=  471 fps=1.9 q=57.0 size=       1KiB time=00:00:03.91 bitrate=   1.1kbits/s speed=0.0155x elapsed=0:04:12.48    \nframe=  472 fps=1.9 q=60.0 size=       1KiB time=00:00:03.92 bitrate=   1.1kbits/s speed=0.0155x elapsed=0:04:13.06    \nframe=  474 fps=1.9 q=60.0 size=       1KiB time=00:00:03.94 bitrate=   1.1kbits/s speed=0.0155x elapsed=0:04:13.63    \nframe=  476 fps=1.9 q=60.0 size=       1KiB time=00:00:03.95 bitrate=   1.1kbits/s speed=0.0156x elapsed=0:04:14.14    \nframe=  478 fps=1.9 q=60.0 size=       1KiB time=00:00:03.97 bitrate=   1.1kbits/s speed=0.0156x elapsed=0:04:14.69    \nframe=  480 fps=1.9 q=60.0 size=       1KiB time=00:00:03.99 bitrate=   1.1kbits/s speed=0.0156x elapsed=0:04:15.23    \nframe=  482 fps=1.9 q=60.0 size=       1KiB time=00:00:04.00 bitrate=   1.1kbits/s speed=0.0157x elapsed=0:04:15.80    \nframe=  484 fps=1.9 q=60.0 size=       1KiB time=00:00:04.02 bitrate=   1.1kbits/s speed=0.0157x elapsed=0:04:16.31    \nframe=  486 fps=1.9 q=60.0 size=       1KiB time=00:00:04.04 bitrate=   1.1kbits/s speed=0.0157x elapsed=0:04:16.82    \nframe=  487 fps=1.9 q=57.0 size=       1KiB time=00:00:04.05 bitrate=   1.1kbits/s speed=0.0157x elapsed=0:04:17.35    \nframe=  489 fps=1.9 q=53.0 size=       1KiB time=00:00:04.05 bitrate=   1.1kbits/s speed=0.0157x elapsed=0:04:17.90    \nframe=  490 fps=1.9 q=60.0 size=       1KiB time=00:00:04.07 bitrate=   1.1kbits/s speed=0.0158x elapsed=0:04:18.45    \nframe=  491 fps=1.9 q=57.0 size=       1KiB time=00:00:04.08 bitrate=   1.1kbits/s speed=0.0158x elapsed=0:04:18.99    \nframe=  494 fps=1.9 q=60.0 size=       1KiB time=00:00:04.10 bitrate=   1.1kbits/s speed=0.0158x elapsed=0:04:19.50    \nframe=  496 fps=1.9 q=60.0 size=       1KiB time=00:00:04.12 bitrate=   1.1kbits/s speed=0.0159x elapsed=0:04:20.01    \nframe=  497 fps=1.9 q=46.0 size=       1KiB time=00:00:04.13 bitrate=   1.1kbits/s speed=0.0159x elapsed=0:04:20.54    \nframe=  498 fps=1.9 q=60.0 size=       1KiB time=00:00:04.14 bitrate=   1.1kbits/s speed=0.0159x elapsed=0:04:21.04    \nframe=  499 fps=1.9 q=59.0 size=       1KiB time=00:00:04.15 bitrate=   1.1kbits/s speed=0.0159x elapsed=0:04:21.56    \nframe=  501 fps=1.9 q=57.0 size=       1KiB time=00:00:04.16 bitrate=   1.1kbits/s speed=0.0159x elapsed=0:04:22.08    \nframe=  502 fps=1.9 q=60.0 size=       1KiB time=00:00:04.17 bitrate=   1.1kbits/s speed=0.0159x elapsed=0:04:22.59    \nframe=  505 fps=1.9 q=53.0 size=       1KiB time=00:00:04.20 bitrate=   1.1kbits/s speed=0.016x elapsed=0:04:23.11    \nframe=  505 fps=1.9 q=53.0 size=       1KiB time=00:00:04.20 bitrate=   1.1kbits/s speed=0.0159x elapsed=0:04:23.63    \nframe=  507 fps=1.9 q=57.0 size=       1KiB time=00:00:04.21 bitrate=   1.1kbits/s speed=0.016x elapsed=0:04:24.15    \nframe=  509 fps=1.9 q=54.0 size=       1KiB time=00:00:04.23 bitrate=   1.1kbits/s speed=0.016x elapsed=0:04:24.65    \nframe=  509 fps=1.9 q=54.0 size=       1KiB time=00:00:04.23 bitrate=   1.1kbits/s speed=0.016x elapsed=0:04:25.16    \nframe=  513 fps=1.9 q=46.0 size=       1KiB time=00:00:04.26 bitrate=   1.0kbits/s speed=0.0161x elapsed=0:04:25.68    \nframe=  515 fps=1.9 q=59.0 size=       1KiB time=00:00:04.28 bitrate=   1.0kbits/s speed=0.0161x elapsed=0:04:26.20    \nframe=  517 fps=1.9 q=57.0 size=       1KiB time=00:00:04.30 bitrate=   1.0kbits/s speed=0.0161x elapsed=0:04:26.72    \nframe=  519 fps=1.9 q=56.0 size=       1KiB time=00:00:04.31 bitrate=   1.0kbits/s speed=0.0162x elapsed=0:04:27.24    \nframe=  521 fps=1.9 q=54.0 size=       1KiB time=00:00:04.33 bitrate=   1.0kbits/s speed=0.0162x elapsed=0:04:27.75    \nframe=  521 fps=1.9 q=54.0 size=       1KiB time=00:00:04.33 bitrate=   1.0kbits/s speed=0.0162x elapsed=0:04:28.26    \nframe=  521 fps=1.9 q=54.0 size=       1KiB time=00:00:04.33 bitrate=   1.0kbits/s speed=0.0161x elapsed=0:04:28.78    \nframe=  523 fps=1.9 q=58.0 size=       1KiB time=00:00:04.35 bitrate=   1.0kbits/s speed=0.0162x elapsed=0:04:29.29    \nframe=  525 fps=1.9 q=55.0 size=       1KiB time=00:00:04.36 bitrate=   1.0kbits/s speed=0.0162x elapsed=0:04:29.81    \nframe=  525 fps=1.9 q=55.0 size=       1KiB time=00:00:04.36 bitrate=   1.0kbits/s speed=0.0162x elapsed=0:04:30.32    \nframe=  525 fps=1.9 q=55.0 size=       1KiB time=00:00:04.36 bitrate=   1.0kbits/s speed=0.0161x elapsed=0:04:30.84    \nframe=  531 fps=2.0 q=59.0 size=       1KiB time=00:00:04.41 bitrate=   1.0kbits/s speed=0.0163x elapsed=0:04:31.35    \nframe=  533 fps=2.0 q=57.0 size=       1KiB time=00:00:04.43 bitrate=   1.0kbits/s speed=0.0163x elapsed=0:04:31.88    \nframe=  537 fps=2.0 q=54.0 size=       1KiB time=00:00:04.46 bitrate=   1.0kbits/s speed=0.0164x elapsed=0:04:32.39    \nframe=  537 fps=2.0 q=54.0 size=       1KiB time=00:00:04.46 bitrate=   1.0kbits/s speed=0.0164x elapsed=0:04:32.90    \nframe=  537 fps=2.0 q=54.0 size=       1KiB time=00:00:04.46 bitrate=   1.0kbits/s speed=0.0163x elapsed=0:04:33.42    \nframe=  537 fps=2.0 q=54.0 size=       1KiB time=00:00:04.46 bitrate=   1.0kbits/s speed=0.0163x elapsed=0:04:33.94    \nframe=  539 fps=2.0 q=57.0 size=       1KiB time=00:00:04.48 bitrate=   1.0kbits/s speed=0.0163x elapsed=0:04:34.45    \nframe=  541 fps=2.0 q=54.0 size=       1KiB time=00:00:04.50 bitrate=   1.0kbits/s speed=0.0164x elapsed=0:04:34.96    \nframe=  541 fps=2.0 q=54.0 size=       1KiB time=00:00:04.50 bitrate=   1.0kbits/s speed=0.0163x elapsed=0:04:35.49    \nframe=  545 fps=2.0 q=47.0 size=       1KiB time=00:00:04.53 bitrate=   1.0kbits/s speed=0.0164x elapsed=0:04:36.00    \nframe=  545 fps=2.0 q=47.0 size=       1KiB time=00:00:04.53 bitrate=   1.0kbits/s speed=0.0164x elapsed=0:04:36.52    \nframe=  549 fps=2.0 q=57.0 size=       1KiB time=00:00:04.56 bitrate=   1.0kbits/s speed=0.0165x elapsed=0:04:37.03    \nframe=  549 fps=2.0 q=57.0 size=       1KiB time=00:00:04.56 bitrate=   1.0kbits/s speed=0.0165x elapsed=0:04:37.54    \nframe=  553 fps=2.0 q=53.0 size=       1KiB time=00:00:04.60 bitrate=   1.0kbits/s speed=0.0165x elapsed=0:04:38.06    \nframe=  553 fps=2.0 q=53.0 size=       1KiB time=00:00:04.60 bitrate=   1.0kbits/s speed=0.0165x elapsed=0:04:38.57    \nframe=  553 fps=2.0 q=53.0 size=       1KiB time=00:00:04.60 bitrate=   1.0kbits/s speed=0.0165x elapsed=0:04:39.09    \nframe=  557 fps=2.0 q=54.0 size=       1KiB time=00:00:04.63 bitrate=   1.0kbits/s speed=0.0166x elapsed=0:04:39.60    \nframe=  557 fps=2.0 q=54.0 size=       1KiB time=00:00:04.63 bitrate=   1.0kbits/s speed=0.0165x elapsed=0:04:40.12    \nframe=  559 fps=2.0 q=57.0 size=       1KiB time=00:00:04.65 bitrate=   1.0kbits/s speed=0.0166x elapsed=0:04:40.64    \nframe=  561 fps=2.0 q=46.0 size=       1KiB time=00:00:04.66 bitrate=   1.0kbits/s speed=0.0166x elapsed=0:04:41.15    \nframe=  565 fps=2.0 q=57.0 size=       1KiB time=00:00:04.70 bitrate=   1.0kbits/s speed=0.0167x elapsed=0:04:41.67    \nframe=  565 fps=2.0 q=57.0 size=       1KiB time=00:00:04.70 bitrate=   1.0kbits/s speed=0.0167x elapsed=0:04:42.18    \nframe=  567 fps=2.0 q=54.0 size=       1KiB time=00:00:04.71 bitrate=   0.9kbits/s speed=0.0167x elapsed=0:04:42.71    \nframe=  569 fps=2.0 q=54.0 size=       1KiB time=00:00:04.73 bitrate=   0.9kbits/s speed=0.0167x elapsed=0:04:43.21    \nframe=  569 fps=2.0 q=54.0 size=       1KiB time=00:00:04.73 bitrate=   0.9kbits/s speed=0.0167x elapsed=0:04:43.73    \nframe=  569 fps=2.0 q=54.0 size=       1KiB time=00:00:04.73 bitrate=   0.9kbits/s speed=0.0167x elapsed=0:04:44.25    \nframe=  571 fps=2.0 q=58.0 size=       1KiB time=00:00:04.75 bitrate=   0.9kbits/s speed=0.0167x elapsed=0:04:44.77    \nframe=  573 fps=2.0 q=56.0 size=       1KiB time=00:00:04.76 bitrate=   0.9kbits/s speed=0.0167x elapsed=0:04:45.28    \nframe=  575 fps=2.0 q=59.0 size=       1KiB time=00:00:04.78 bitrate=   0.9kbits/s speed=0.0167x elapsed=0:04:45.79    \nframe=  577 fps=2.0 q=47.0 size=       1KiB time=00:00:04.80 bitrate=   0.9kbits/s speed=0.0168x elapsed=0:04:46.31    \nframe=  581 fps=2.0 q=59.0 size=       1KiB time=00:00:04.83 bitrate=   0.9kbits/s speed=0.0169x elapsed=0:04:46.83    \nframe=  581 fps=2.0 q=59.0 size=       1KiB time=00:00:04.83 bitrate=   0.9kbits/s speed=0.0168x elapsed=0:04:47.34    \nframe=  585 fps=2.0 q=56.0 size=       1KiB time=00:00:04.86 bitrate=   0.9kbits/s speed=0.0169x elapsed=0:04:47.86    \nframe=  585 fps=2.0 q=56.0 size=       1KiB time=00:00:04.86 bitrate=   0.9kbits/s speed=0.0169x elapsed=0:04:48.38    \nframe=  587 fps=2.0 q=59.0 size=       1KiB time=00:00:04.88 bitrate=   0.9kbits/s speed=0.0169x elapsed=0:04:48.89    \nframe=  589 fps=2.0 q=59.0 size=       1KiB time=00:00:04.90 bitrate=   0.9kbits/s speed=0.0169x elapsed=0:04:49.40    \nframe=  591 fps=2.0 q=59.0 size=       1KiB time=00:00:04.91 bitrate=   0.9kbits/s speed=0.017x elapsed=0:04:49.91    \n[out#0/matroska @ 00000189bb779940] video:1906KiB audio:0KiB subtitle:0KiB other streams:0KiB global headers:0KiB muxing overhead: 0.171204%\nframe=  600 fps=2.1 q=59.0 Lsize=    1909KiB time=00:00:04.99 bitrate=3132.9kbits/s speed=0.0172x elapsed=0:04:50.42    \n",
  "seconds": 293.60396242141724,
  "probe_out": {}
}